<svg id="b2fae191-c968-40a7-b76c-215916d8348a" data-name="Warstwa 1" xmlns="http://www.w3.org/2000/svg" viewBox="0 0 644.5922 340.135">
  <defs>
    <style>
      .aebef776-b9d5-4399-985d-80ac12964386 {
        fill: #1c75bc;
        opacity: 0.7;
      }

      .a6dc6c43-1cea-43a4-a60a-fe9539cee01c, .ad9251c0-d9e6-420b-b2a8-cdf67e193aac {
        fill: none;
      }

      .ad9251c0-d9e6-420b-b2a8-cdf67e193aac, .f54eea72-2c25-472f-b79f-76091b681c3b {
        stroke: #231f20;
      }

      .a6dc6c43-1cea-43a4-a60a-fe9539cee01c, .ad9251c0-d9e6-420b-b2a8-cdf67e193aac, .f54eea72-2c25-472f-b79f-76091b681c3b {
        stroke-miterlimit: 10;
      }

      .ad9251c0-d9e6-420b-b2a8-cdf67e193aac {
        stroke-width: 8px;
      }

      .f54eea72-2c25-472f-b79f-76091b681c3b {
        fill: #fff;
        stroke-width: 5px;
      }

      .a6dc6c43-1cea-43a4-a60a-fe9539cee01c {
        stroke: #2b3990;
        stroke-width: 10px;
      }

      .bb5908be-c178-4f97-9b38-abdbe53b4d9b {
        fill: #231f20;
      }
    </style>
  </defs>
  <rect class="aebef776-b9d5-4399-985d-80ac12964386" x="0.1958" y="0.0429" width="340.0921" height="340.0921"/>
  <g>
    <line class="ad9251c0-d9e6-420b-b2a8-cdf67e193aac" x1="227.2938" y1="83.9101" x2="139.3667" y2="259.9303"/>
    <line class="ad9251c0-d9e6-420b-b2a8-cdf67e193aac" x1="54.8673" y1="244.7396" x2="141.9641" y2="259.4861"/>
    <line class="ad9251c0-d9e6-420b-b2a8-cdf67e193aac" x1="177.0859" y1="184.4207" x2="221.2268" y2="262.2511"/>
    <line class="ad9251c0-d9e6-420b-b2a8-cdf67e193aac" x1="168.6922" y1="320.3156" x2="221.2268" y2="262.2511"/>
    <line class="ad9251c0-d9e6-420b-b2a8-cdf67e193aac" x1="211.4381" y1="115.6513" x2="165.9273" y2="129.993"/>
    <line class="ad9251c0-d9e6-420b-b2a8-cdf67e193aac" x1="140.1208" y1="179.7626" x2="165.9273" y2="129.993"/>
    <line class="ad9251c0-d9e6-420b-b2a8-cdf67e193aac" x1="213.3927" y1="118.0115" x2="225.8351" y2="165.4769"/>
    <line class="ad9251c0-d9e6-420b-b2a8-cdf67e193aac" x1="262.7014" y1="201.4216" x2="225.8351" y2="165.4769"/>
    <circle class="ad9251c0-d9e6-420b-b2a8-cdf67e193aac" cx="231.184" cy="55.5691" r="32.0276"/>
  </g>
  <g>
    <path d="M340.978,347.7168h-17.25a6.0817,6.0817,0,0,0-6.0586,6.0586,5.3442,5.3442,0,0,0,3.6446,5.2031,25.6776,25.6776,0,0,0,6.8672,1.3828q1.7343.1758,2.1679.2344a9.9051,9.9051,0,0,1,2.086.457q.668.2579.6679.7735a.5956.5956,0,0,1-.6679.68H315.2788v-2.3907h3.2695a7.3465,7.3465,0,0,1-3.2695-6.34,8.4622,8.4622,0,0,1,8.4492-8.4492h17.25Zm0,3.9727h-17.25a1.9847,1.9847,0,0,0-1.459.621,2.0134,2.0134,0,0,0-.6152,1.4649q0,1.793,3.9844,2.4375,7.2773,1.1837,7.3945,1.2187,3.9845,1.1953,3.9844,4.3125a4.5356,4.5356,0,0,1-1.4,3.3516,4.6224,4.6224,0,0,1-3.3691,1.3828H315.2788v-2.3906h16.9688a2.317,2.317,0,0,0,1.6757-.6856,2.2305,2.2305,0,0,0,.7032-1.6582q0-1.9335-3.9844-2.6132-3.6914-.5978-7.3945-1.1836-3.9844-1.1367-3.9844-4.1719a4.5117,4.5117,0,0,1,4.4648-4.4766h17.25Zm0,10.0546a8.7223,8.7223,0,0,1-8.73,8.7071H315.2788v-2.3907h16.9688a6.3416,6.3416,0,0,0,6.34-6.3164,5.0473,5.0473,0,0,0-1.9453-4.207,10.5511,10.5511,0,0,0-4.4414-1.7695q-1.0078-.1875-4.8164-.6094-.9492-.0937-2.7422-.3867-.9024-.2228-.9024-.7735a.6371.6371,0,0,1,.7266-.7148l16.5117-.0117v2.3906h-3.0234a6.9548,6.9548,0,0,1,2.2324,2.6543A7.7244,7.7244,0,0,1,340.978,361.7441Z" transform="translate(-32.6382 -113.3756)"/>
    <path d="M342.5308,384.3584a12.95,12.95,0,0,1-2.32,7.8516l-1.7343-1.7461a10.796,10.796,0,0,0,1.664-6.1055q0-5.3789-3.6445-8.2383a15.1534,15.1534,0,0,0-16.7344,0q-3.6445,2.8595-3.6445,8.2383t3.6445,8.2383a13.1606,13.1606,0,0,0,8.3672,2.5195,15.0971,15.0971,0,0,0,5.9766-1.125l1.8047,1.793a17.0686,17.0686,0,0,1-7.7813,1.7226,15.6588,15.6588,0,0,1-9.7734-2.9648q-4.629-3.5157-4.6289-10.1836t4.6289-10.1836a17.5915,17.5915,0,0,1,19.5469,0Q342.5308,377.6905,342.5308,384.3584Zm-3.3633,9.07a11.3276,11.3276,0,0,1-1.8516,1.5234l-2.8828-2.8828a12.5851,12.5851,0,0,1-6.3047,1.4532,11.5185,11.5185,0,0,1-7.43-2.2149,9.5231,9.5231,0,0,1,0-13.8984,13.5686,13.5686,0,0,1,14.8594,0,8.365,8.365,0,0,1,3.0117,6.9492,8.6766,8.6766,0,0,1-2.2383,6.2344Zm-2.9883-9.07a6.2169,6.2169,0,0,0-2.0625-5.0332,11.1734,11.1734,0,0,0-11.9766,0,7.1726,7.1726,0,0,0,0,10.0664,11.1734,11.1734,0,0,0,11.9766,0A6.2169,6.2169,0,0,0,336.1792,384.3584Zm-1.5938,0q0,5.203-6.457,5.2031t-6.457-5.2031q0-5.2032,6.457-5.2031T334.5854,384.3584Zm-2.3906,0a2.6826,2.6826,0,0,0-.539-1.8867q-.879-.9258-3.5274-.9258t-3.5273.9258a3.571,3.571,0,0,0,0,3.7734q.8789.9258,3.5273.9258t3.5274-.9258A2.6826,2.6826,0,0,0,332.1948,384.3584Z" transform="translate(-32.6382 -113.3756)"/>
    <path d="M337.72,423.251h-8.8476a10.3429,10.3429,0,0,1-10.336-10.3594V398.126h2.3906v14.7656a7.9522,7.9522,0,0,0,7.9454,7.9688H337.72Zm0-3.9727h-8.8476a6.3716,6.3716,0,0,1-6.3633-6.3867V398.126H324.9v14.7656a3.8685,3.8685,0,0,0,1.16,2.8242,3.8105,3.8105,0,0,0,2.8125,1.1719H337.72Zm0-3.9726h-8.8476a2.2921,2.2921,0,0,1-1.6875-.709,2.3343,2.3343,0,0,1-.7032-1.7051V398.126h2.3907v14.789H337.72Z" transform="translate(-32.6382 -113.3756)"/>
  </g>
  <rect class="f54eea72-2c25-472f-b79f-76091b681c3b" x="2.5" y="2.5" width="79.7235" height="79.7235"/>
  <polyline class="a6dc6c43-1cea-43a4-a60a-fe9539cee01c" points="18.838 32.845 41.292 60.005 65.886 24.719"/>
  <g>
    <path class="bb5908be-c178-4f97-9b38-abdbe53b4d9b" d="M433.3086,149.7729h3.2852v29.7354a13.1961,13.1961,0,0,0-.26,2.5933,13.4149,13.4149,0,0,0,.26,2.68v22.2154l-1.47,2.9389c.4326.3457.9512.6919,1.47,1.0376v25.2408h-3.2852Zm8.2988,0v22.2154a13.4937,13.4937,0,0,0-3.2851,3.3711V149.7729Zm-3.2851,39.2442a13.8432,13.8432,0,0,0,3.2851,3.4575v8.73l-1.5556-1.0371-1.73,3.4575Zm3.2851,24.3765v22.82h-3.2851v-24.29C439.36,212.4424,440.4834,212.9609,441.6074,213.3936Zm1.7285-63.6207h3.2852v19.9678a18.5786,18.5786,0,0,0-3.2852,1.2964ZM446.6211,195.5v7.9526a25.883,25.883,0,0,1-3.2852-1.2964v-8.4716A24.2788,24.2788,0,0,0,446.6211,195.5Zm0,19.19v21.524h-3.2852V213.9121A20.2127,20.2127,0,0,0,446.6211,214.69Zm1.7285-64.917h3.2852v19.2764c-1.1241.0864-2.2481.1729-3.2852.3457Zm3.2852,30.1675v5.4458c-1.9883-.9507-3.2852-1.8149-3.2852-3.1982C448.35,181.0645,449.3867,180.1138,451.6348,179.94Zm0,17.8936v6.4829a14.9331,14.9331,0,0,1-3.2852-.4321v-7.5205C449.4736,196.8833,450.5977,197.3154,451.6348,197.834Zm0,17.3745v21.0054H448.35V214.9492A20.2274,20.2274,0,0,0,451.6348,215.2085Zm1.7285-65.4356h3.2851V169.395c-1.0371-.1728-2.1611-.2593-3.2851-.3457Zm0,30.1675a20.1051,20.1051,0,0,1,3.2851.6055v6.8286c-1.124-.4321-2.248-.8642-3.2851-1.2964Zm3.2851,21.9561c0,1.21-1.0371,2.0747-3.2851,2.334v-5.6187C455.3516,199.6494,456.6484,200.6,456.6484,201.8965Zm-3.2851,13.312c1.124-.0864,2.248-.1729,3.2851-.3457v21.3511h-3.2851Zm5.0137-65.4356h3.2851v20.9185a20.752,20.752,0,0,0-3.2851-1.0371Zm3.2851,32.9336v7.1748a23.8449,23.8449,0,0,0-3.2851-1.729v-7.0014A22.8113,22.8113,0,0,1,461.6621,182.7065Zm-3.2851,31.8106a18.5729,18.5729,0,0,0,3.2851-1.2964v22.9932H458.377Zm8.2988-64.7442v23.3389c-1.0371-.605-2.1612-1.21-3.2852-1.729v-21.61Zm-3.2852,33.4527,3.2852-6.6563v17.8936a15.4942,15.4942,0,0,0-3.2852-3.458Zm0,28.9575a11.12,11.12,0,0,0,3.2852-3.3711v27.4019h-3.2852Zm5.0137-62.41H471.69v86.441h-3.2852V204.49a15.9186,15.9186,0,0,0,.26-2.8525,14.5789,14.5789,0,0,0-.26-2.8525Z" transform="translate(-32.6382 -113.3756)"/>
    <path class="bb5908be-c178-4f97-9b38-abdbe53b4d9b" d="M473.415,149.7729H476.7V187.72a29.6407,29.6407,0,0,0-.3457,4.8408,26.8988,26.8988,0,0,0,.3457,4.668v38.9849H473.415Zm8.2989,0v26.2779a22.2542,22.2542,0,0,0-3.2852,5.3594V149.7729Zm-3.2852,53.5933a21.1614,21.1614,0,0,0,3.2852,5.1865v27.6612h-3.2852Zm8.2988-53.5933v22.0425a22.9486,22.9486,0,0,0-3.2851,2.42V149.7729Zm-3.2851,60.5083a22.4108,22.4108,0,0,0,3.2851,2.334v23.5987h-3.2851Zm5.0137-60.5083H491.74v20.0542a21.0278,21.0278,0,0,0-3.2841,1.1236Zm3.2841,33.02v18.9306c-2.0742-1.9878-3.2841-5.2729-3.2841-9.4218S489.666,184.8677,491.74,182.793Zm0,31.7241v21.6968h-3.2841V213.48A20.7729,20.7729,0,0,0,491.74,214.5171Zm1.7295-64.7442h3.2842v19.2764c-1.123.0864-2.2471.1729-3.2842.3457Zm0,31.7237a8.08,8.08,0,0,1,3.2842-.9507v23.4253a9.7629,9.7629,0,0,1-3.2842-1.0371Zm3.2842,33.7119v21.0054H493.47V214.8628C494.5068,215.0356,495.6309,215.1221,496.7539,215.2085Zm5.0137-65.4356v19.5357a20.2249,20.2249,0,0,0-3.2842-.2593V149.7729ZM498.4834,180.46a8.08,8.08,0,0,1,3.2842.9507v14.4355l-3.2842,2.1611Zm1.7285,23.2524-1.7285.2593v-3.0254Zm-1.7285,11.4966a20.0685,20.0685,0,0,0,3.2842-.4321v21.4375h-3.2842Zm8.2978-65.4356v20.9185a20.7729,20.7729,0,0,0-3.2841-1.0371V149.7729ZM503.4971,182.62c2.0742,1.9883,3.2841,5.273,3.2841,9.4224a17.8978,17.8978,0,0,1-.8642,6.0508l-2.42-3.3711Zm0,31.7241a21.5972,21.5972,0,0,0,3.2841-1.2968v23.1665h-3.2841Zm5.0127-64.5713h3.2851v24.03a16.9994,16.9994,0,0,0-3.2851-2.2475Zm3.2851,65.09v21.3511H508.51V213.5664A18.6033,18.6033,0,0,0,511.7949,214.8628Zm5.0137-65.09v30.9459a21.1545,21.1545,0,0,0-3.2852-5.1866V149.7729Zm0,65.7813v20.66h-3.2852V215.2085A20.1428,20.1428,0,0,0,516.8086,215.5542Zm0-13.4849V205.7l-1.6426-.3457C515.7715,204.3169,516.29,203.1934,516.8086,202.0693Zm1.7285,13.5713,2.0752-9.3354-2.0752-.3457v-9.9409a25.5452,25.5452,0,0,0,.3457-4.4947,26.8939,26.8939,0,0,0-.3457-4.6679V149.7729h3.2852v86.441h-3.2852Z" transform="translate(-32.6382 -113.3756)"/>
    <path class="bb5908be-c178-4f97-9b38-abdbe53b4d9b" d="M523.5469,149.7729h3.2851v86.441h-3.2851Zm5.0136,0h3.2852v19.8814h-3.2852Zm0,64.8306h3.2852v21.61h-3.2852Zm5.0137-64.8306h3.2852v19.8814h-3.2852Zm0,64.8306h3.2852v21.61h-3.2852Zm5.0137-64.8306h3.2842v53.5933h-3.2842Zm0,64.8306h3.2842v21.61h-3.2842Zm5.0137-64.8306h3.2841v53.5933h-3.2841Zm0,64.8306h3.2841v21.61h-3.2841Zm5.0136-64.8306h3.2842v53.5933h-3.2842Zm0,64.8306h3.2842v21.61h-3.2842Z" transform="translate(-32.6382 -113.3756)"/>
    <path class="bb5908be-c178-4f97-9b38-abdbe53b4d9b" d="M433.3086,322.5723h3.2852v86.4414h-3.2852Zm5.0137,0h3.2851v19.8818h-3.2851Zm0,64.831h3.2851v21.61h-3.2851Zm5.0136-64.831h3.2852v19.8818h-3.2852Zm0,64.831h3.2852v21.61h-3.2852Zm5.0137-64.831h3.2852v25.414L448.35,342.627Zm0,40.9736,3.2852,5.7051v39.7627H448.35Zm5.0137-40.9736h3.2851v33.6259l-3.2851-5.4462Zm0,49.6172,3.2851,5.705v31.1192h-3.2851Zm5.0137-49.6172h3.2851v36.4785l-1.6426,2.68-1.6425-2.7666Zm0,58.2617h3.2851v28.18H458.377Zm5.0136-58.2617h3.2852v28.2666l-3.2852,5.4453Zm0,55.3222,3.2852-5.6181v36.7373h-3.2852Zm5.0137-55.3222H471.69V342.627l-3.2852,5.3593Zm0,46.6787,3.2852-5.6192v45.3819h-3.2852Zm5.0137-46.6787h3.2851v19.8818H473.418Zm0,64.831h3.2851v21.61H473.418Zm5.0136-64.831h3.2842v19.8818h-3.2842Zm0,64.831h3.2842v21.61h-3.2842Zm5.0137-64.831H486.73v86.4414h-3.2842Z" transform="translate(-32.6382 -113.3756)"/>
    <path class="bb5908be-c178-4f97-9b38-abdbe53b4d9b" d="M488.4541,322.5723h3.2852v37.9482a29.6366,29.6366,0,0,0-.3457,4.8408,26.8871,26.8871,0,0,0,.3457,4.667v38.9854h-3.2852Zm8.2988,0v26.2783a22.2442,22.2442,0,0,0-3.2851,5.3594V322.5723Zm-3.2851,53.5937a21.1705,21.1705,0,0,0,3.2851,5.1865v27.6612h-3.2851Zm8.2988-53.5937v22.0429a22.9552,22.9552,0,0,0-3.2852,2.42V322.5723Zm-3.2852,60.5088a22.4618,22.4618,0,0,0,3.2852,2.3339v23.5987h-3.2852Zm5.0137-60.5088h3.2842V342.627a20.9133,20.9133,0,0,0-3.2842,1.124Zm3.2842,33.0205v18.7578c-2.0742-1.9883-3.2842-5.1865-3.2842-9.249C503.4951,360.9521,504.7051,357.668,506.7793,355.5928Zm0,31.7236v21.6973h-3.2842V386.2793A20.6678,20.6678,0,0,0,506.7793,387.3164Zm1.73-64.7441h3.2842v19.2763c-1.1231.0869-2.2471.1729-3.2842.3457Zm0,31.7246a8.057,8.057,0,0,1,3.2842-.9512v23.2529a9.703,9.703,0,0,1-3.2842-.9511Zm3.2842,33.7119v21.0049h-3.2842V387.6631C509.5459,387.8359,510.67,387.9219,511.793,388.0088Zm5.0136-65.4365v19.5361a20.2229,20.2229,0,0,0-3.2841-.26V322.5723Zm0,31.6377v21.4375a8.0894,8.0894,0,0,1-3.2841.9511v-23.34A8.088,8.088,0,0,1,516.8066,354.21Zm0,33.4531v21.3506h-3.2841V388.0088C514.6455,387.9219,515.77,387.8359,516.8066,387.6631Zm5.0137-65.0908v20.9189a20.6678,20.6678,0,0,0-3.2842-1.0371V322.5723ZM518.5361,355.42c2.0743,1.9883,3.2842,5.2735,3.2842,9.4219,0,4.2363-1.21,7.5205-3.2842,9.5088Zm0,31.8965a21.3063,21.3063,0,0,0,3.2842-1.21v22.9073h-3.2842Zm5.0127-64.7441h3.2852v24.0312a16.9549,16.9549,0,0,0-3.2852-2.248Zm0,62.67a17.8732,17.8732,0,0,0,3.2852-2.42v26.1914h-3.2852Zm8.2989-62.67v30.9463a21.1733,21.1733,0,0,0-3.2852-5.1866v-25.76Zm0,52.9882v33.4532h-3.2852V381.0068A21.2151,21.2151,0,0,0,531.8477,375.5605Zm1.7285-6.3964a28.961,28.961,0,0,0,.3457-4.8409,26.915,26.915,0,0,0-.3457-4.6679v-37.083h3.2851v86.4414h-3.2851Z" transform="translate(-32.6382 -113.3756)"/>
    <path class="bb5908be-c178-4f97-9b38-abdbe53b4d9b" d="M538.5859,322.5723h3.2852v86.4414h-3.2852Zm5.0137,0h3.2852v19.8818H543.6Zm0,64.831h3.2852v21.61H543.6Zm5.0137-64.831h3.2851v19.8818h-3.2851Zm0,64.831h3.2851v21.61h-3.2851Zm5.0137-64.831h3.2841v25.3271l-3.2841-5.4453Zm0,42.6152,3.2841,5.4463v38.38H553.627Zm5.0136-42.6152h3.2842v33.6259l-3.2842-5.4462Zm0,50.914,3.2842,5.4453v30.0821h-3.2842Zm5.0137-50.914h3.2842V364.583l-3.2842-5.4463Zm0,59.2119,3.2842,5.4463v21.7832h-3.2842Zm5.0137-59.2119h3.2841v19.8818H568.668Zm0,64.831h3.2841v21.61H568.668Zm5.0136-64.831h3.2842v19.8818h-3.2842Zm0,64.831h3.2842v21.61h-3.2842Zm5.0127-64.831H581.98v86.4414h-3.2852Z" transform="translate(-32.6382 -113.3756)"/>
    <path class="bb5908be-c178-4f97-9b38-abdbe53b4d9b" d="M583.7041,322.5723h3.2852v86.4414h-3.2852Zm5.0137,0h3.2851v19.8818h-3.2851Zm0,64.831h3.2851v21.61h-3.2851Zm5.0136-64.831h3.2852v19.8818h-3.2852Zm0,64.831h3.2852v21.61h-3.2852Zm5.0137-64.831h3.2842V342.54c-1.21-.0859-2.333-.0859-3.1982-.0859h-.086Zm0,31.0322h.2588c.9512,0,1.9883,0,3.0254.0869V376.252h-3.2842Zm0,33.7988h3.2842v21.61h-3.2842Zm5.0137-64.831h3.2842v20.4863a22.8439,22.8439,0,0,0-3.2842-.4316Zm0,31.292a10.86,10.86,0,0,1,3.2842.8642v20.5733a10.726,10.726,0,0,1-3.2842.7773Zm3.2842,33.02v22.1289h-3.2842V387.3164A22.8439,22.8439,0,0,0,607.043,386.8848Zm1.73-64.3125h3.2841v21.87a23.8835,23.8835,0,0,0-3.2841-1.0371Zm3.2841,42.0966c0,5.1006-1.2959,7.9532-3.2841,9.5957v-18.499C610.7607,357.3223,612.0566,360.002,612.0566,364.6689Zm0,20.919v23.4258h-3.2841V386.5391A15.6642,15.6642,0,0,0,612.0566,385.5879Zm1.73-63.0156H617.07V347.208a18.5286,18.5286,0,0,0-3.2842-1.9883Zm3.2842,60.1631v26.2783h-3.2842V384.8105A14.9691,14.9691,0,0,0,617.07,382.7354Zm1.7285-60.1631h3.2852v31.1191a16.4719,16.4719,0,0,0-3.2852-4.8408Zm3.2852,53.5068v32.9346h-3.2852V381.18A16.72,16.72,0,0,0,622.084,376.0791Zm2.0742-11.41a29.337,29.337,0,0,0-.3457-4.9267v-37.17h3.2852v86.4414h-3.2852V369.77A30.8031,30.8031,0,0,0,624.1582,364.6689Z" transform="translate(-32.6382 -113.3756)"/>
    <path class="bb5908be-c178-4f97-9b38-abdbe53b4d9b" d="M628.8232,322.5723h3.2852v37.9482a29.6366,29.6366,0,0,0-.3457,4.8408,26.8871,26.8871,0,0,0,.3457,4.667v38.9854h-3.2852Zm8.2989,0v26.2783a22.2445,22.2445,0,0,0-3.2852,5.3594V322.5723Zm-3.2852,53.5937a21.1708,21.1708,0,0,0,3.2852,5.1865v27.6612h-3.2852Zm8.2988-53.5937v22.0429a22.9486,22.9486,0,0,0-3.2851,2.42V322.5723Zm-3.2851,60.5088a22.4555,22.4555,0,0,0,3.2851,2.3339v23.5987h-3.2851Zm5.0137-60.5088h3.2841V342.627a20.9157,20.9157,0,0,0-3.2841,1.124Zm3.2841,33.0205v18.7578c-2.0742-1.9883-3.2841-5.1865-3.2841-9.249C643.8643,360.9521,645.0742,357.668,647.1484,355.5928Zm0,31.7236v21.6973h-3.2841V386.2793A20.67,20.67,0,0,0,647.1484,387.3164Zm1.7295-64.7441h3.2842v19.2763c-1.123.0869-2.2471.1729-3.2842.3457Zm0,31.7246a8.057,8.057,0,0,1,3.2842-.9512v23.2529a9.703,9.703,0,0,1-3.2842-.9511Zm3.2842,33.7119v21.0049h-3.2842V387.6631C649.915,387.8359,651.0391,387.9219,652.1621,388.0088Zm5.0137-65.4365v19.5361a20.2242,20.2242,0,0,0-3.2842-.26V322.5723Zm0,31.6377v21.4375a8.0895,8.0895,0,0,1-3.2842.9511v-23.34A8.088,8.088,0,0,1,657.1758,354.21Zm0,33.4531v21.3506h-3.2842V388.0088C655.0146,387.9219,656.1387,387.8359,657.1758,387.6631Zm5.0137-65.0908v20.9189a20.6743,20.6743,0,0,0-3.2842-1.0371V322.5723ZM658.9053,355.42c2.0742,1.9883,3.2842,5.2735,3.2842,9.4219,0,4.2363-1.21,7.5205-3.2842,9.5088Zm0,31.8965a21.314,21.314,0,0,0,3.2842-1.21v22.9073h-3.2842Zm5.0127-64.7441h3.2851v24.0312a16.9573,16.9573,0,0,0-3.2851-2.248Zm0,62.67a17.8759,17.8759,0,0,0,3.2851-2.42v26.1914H663.918Zm8.2988-62.67v30.9463a21.1733,21.1733,0,0,0-3.2852-5.1866v-25.76Zm0,52.9882v33.4532h-3.2852V381.0068A21.2151,21.2151,0,0,0,672.2168,375.5605Zm1.7285-6.3964a28.95,28.95,0,0,0,.3457-4.8409,26.9051,26.9051,0,0,0-.3457-4.6679v-37.083h3.2852v86.4414h-3.2852Z" transform="translate(-32.6382 -113.3756)"/>
  </g>
</svg>
